# xmcd
#
# Track frame offsets: 
#        150
#        23973
#        34797
#        59747
#        77900
#        104210
#        128798
#        155097
#        169815
#        199998
#
# Disc length: 2958 seconds
#
# Revision: 8
# Processed by: cddbd v1.5.2PL0 Copyright (c) Steve Scherf et al.
# Submitted via: ExactAudioCopy v0.95b4
#
DISCID=940b8c0a
DTITLE=Chucho Valdes - Chucho Valdés en el Teatro Colon
DYEAR=2003
DGENRE=Jazz
TTITLE0=Son de la loma
TTITLE1=Habanera
TTITLE2=Blue Monk
TTITLE3=Embrassed by you
TTITLE4=Comparsa
TTITLE5=Esta tarde vi llover - My foolish heart
TTITLE6=A Ernesto
TTITLE7=Amanecer
TTITLE8=Son en do menor
TTITLE9=Estas en mi corazon
EXTD=YEAR: 2007
EXTT0=
EXTT1=
EXTT2=
EXTT3=
EXTT4=
EXTT5=
EXTT6=
EXTT7=
EXTT8=
EXTT9=
PLAYORDER=
